<?xml version="1.0" encoding="utf-8"?>
<svg version="1.1" id="Layer_1" xmlns="http://www.w3.org/2000/svg" xmlns:xlink="http://www.w3.org/1999/xlink" x="0px" y="0px"
 viewBox="0 0 100 100" style="enable-background:new 0 0 100 100;" xml:space="preserve">
<path fill="#213547" d="M61.8,75.4c-1-0.6-2.3-0.3-2.9,0.7c-1.9,3.1-5.3,5-8.9,5c-3.6,0-7-1.9-8.9-5c-0.6-1-1.9-1.3-2.9-0.7
	c-1,0.6-1.3,1.9-0.7,2.9c2.6,4.4,7.4,7.1,12.6,7.1c5.1,0,9.9-2.7,12.6-7.1C63.2,77.3,62.8,76,61.8,75.4z"/>
<ellipse fill="#213547" cx="31.3" cy="54.7" rx="5.3" ry="5"/>
<ellipse fill="#213547" cx="68.7" cy="54.7" rx="5.3" ry="5"/>
<path fill="#213547" d="M96.6,50.8c-1.8-1-4-1.2-5.9-0.5c0,0,0-0.1,0-0.1h0.5c0-1.2-0.1-2.4-0.2-3.6c2.3-4.4,3.6-9.4,3.6-14.7
	C94.6,14.2,80.4,0,62.8,0C58.2,0,53.9,1,50,2.8C46.1,1,41.8,0,37.2,0C19.6,0,5.4,14.2,5.4,31.8c0,5.3,1.3,10.3,3.6,14.7
	c-0.1,1.2-0.2,2.4-0.2,3.6h0.5c0,0,0,0.1,0,0.1c-2-0.6-4.2-0.5-5.9,0.5c-1.5,0.9-4,3.2-3.3,8.8c0.8,5.6,4.4,8.1,7.4,10.1
	c1.4,1,2.7,1.8,3.3,2.8l1,1.5C17.7,89.7,32,100,50,100s32.3-10.3,38.2-26l1-1.5c0.6-1,1.9-1.8,3.3-2.8c2.9-2,6.6-4.4,7.4-10.1
	C100.6,54.1,98.1,51.7,96.6,50.8z M4.4,59c-0.2-1.3-0.3-3.6,1.2-4.5c1-0.6,2.5-0.3,3.3,0.3l0.1,0.1c0,0.7-0.1,1.5-0.1,2.2
	c0,3,0.3,6,0.8,8.8C7.1,64.2,4.9,62.6,4.4,59z M50,95.7c-21.4,0-36.9-16.3-36.9-38.6c0-7,1.5-13.4,4.3-18.9c3.1,1.6,5.6,2.5,10,2.5
	c7.2,0,13.1-5.4,17.3-10.6c5.3,5.3,13,10.6,20.9,10.6c5.6,0,11.7-1.4,16.3-4v0c3.2,5.8,5.1,12.7,5.1,20.4
	C86.9,79.5,71.4,95.7,50,95.7z M95.6,59c-0.5,3.6-2.8,5.2-5.2,6.9c0.5-2.8,0.8-5.8,0.8-8.8c0-0.8-0.1-1.5-0.1-2.2l0.1-0.1
	c0.8-0.6,2.3-0.8,3.3-0.2C95.9,55.4,95.8,57.7,95.6,59z"/>
</svg>
