<?xml version="1.0" encoding="utf-8"?>
<svg version="1.1" id="Layer_1" xmlns="http://www.w3.org/2000/svg" xmlns:xlink="http://www.w3.org/1999/xlink" x="0px" y="0px"
	 viewBox="0 0 100 100" style="enable-background:new 0 0 100 100;" xml:space="preserve">
<path fill="#213547" d="M62.8,77.1c-0.5,0.8-1.2,1.6-1.9,2.3c-1.4,1.4-3.1,2.6-5,3.3c-3.7,1.5-8,1.5-11.8,0c-1.9-0.8-3.6-1.9-5-3.3
	c-0.7-0.7-1.4-1.5-1.9-2.3c-0.5-0.8-1.7-1-2.5-0.5c-0.8,0.5-1,1.7-0.5,2.5c0.7,1,1.5,2,2.4,2.9c1.8,1.8,3.8,3.2,6.2,4.1
	c2.3,1,4.7,1.4,7.3,1.4s5-0.5,7.3-1.4c2.3-1,4.4-2.3,6.2-4.1c0.9-0.9,1.7-1.8,2.4-2.9c0.5-0.8,0.3-1.9-0.5-2.5
	C64.5,76,63.4,76.2,62.8,77.1z"/>
<circle fill="#213547" cx="34.5" cy="61.1" r="5"/>
<circle fill="#213547" cx="65.6" cy="61.1" r="5"/>
<path fill="#213547" d="M95.5,6.2C96.1,2.7,96.1,0,96.1,0s-4.6,2-9,5c-0.2-2-0.5-3.4-0.5-3.4s-11.6,6.3-7.4,14.1
	C73.3,11.5,66.6,9.4,61,9.4c-3.9,0-7.6,0.8-11,2.2c-3.4-1.4-7.1-2.2-11-2.2c-5.6,0-12.4,2.1-18.1,6.3c4.2-7.8-7.4-14.1-7.4-14.1
	S13.1,3.1,12.9,5c-4.4-3-9-5-9-5s0,2.7,0.6,6.2C1.9,5.7,0,5.8,0,5.8s3.7,20.3,14.9,15.6c-6.5,8-9.8,19.9-4.7,35.9
	c-1.7-0.1-3.5,0.3-4.8,1.4c-1.1,0.9-2.9,3-2.4,7.2c0.7,5,4.7,7.4,7.7,9.1c1.5,0.9,2.9,1.7,3.4,2.5l0.9,1.4
	C21.7,91.5,34.8,100,50,100s28.3-8.5,35-21.1l0.9-1.4c0.5-0.8,1.9-1.6,3.4-2.5c2.9-1.7,7-4.1,7.7-9.1c0.6-4.2-1.2-6.4-2.4-7.2
	c-1.3-1-3.1-1.5-4.8-1.4c5.1-16,1.8-28-4.7-35.9C96.3,26.1,100,5.8,100,5.8S98.1,5.7,95.5,6.2z M7,65.4c-0.2-1.2-0.1-2.7,0.9-3.5
	c0.7-0.5,1.6-0.6,2.4-0.4c0.1,3.3,0.6,6.5,1.4,9.6C9.5,69.6,7.4,68.1,7,65.4z M81.5,76.9l-0.1,0.1l0,0C75.4,88.3,63.6,96,50,96
	s-25.4-7.7-31.4-18.9l0,0l-0.1-0.1c-2.6-5-4.1-10.6-4.1-16.6c0-6.1,1.6-11.9,4.3-17c0.8,5.1,1.7,8.9,1.7,8.9S30.6,40,31.3,30
	c0.1-0.1,0.2-0.1,0.3-0.2c5.7,15,16.1,19.1,16.1,19.1s-0.9-6.4-2.8-11.5c3,5.3,8.9,8.7,12.2,10.4c0,0-3.4-12.2-8.9-18.1
	c0,0,13.9,14.2,23.9,22.3c-1.9-10.1-7.4-15.6-11.4-22.9c4.7,5.8,14.8,16.4,19.6,18.4c0,0-1.1-5.6-3.3-10.5c1.3,1.7,2.6,3.4,3.7,5.2
	c3.1,5.3,4.9,11.4,4.9,17.9C85.7,66.3,84.1,72,81.5,76.9z M92.1,61.8c1,0.8,1,2.4,0.9,3.5c-0.4,2.7-2.4,4.2-4.8,5.6
	c0.9-3.1,1.4-6.3,1.4-9.6C90.4,61.2,91.4,61.3,92.1,61.8z"/>
</svg>
